<?xml version="1.0" standalone="no"?>
<!DOCTYPE svg PUBLIC "-//W3C//DTD SVG 20010904//EN"
 "http://www.w3.org/TR/2001/REC-SVG-20010904/DTD/svg10.dtd">
<svg version="1.0"
    xmlns="http://www.w3.org/2000/svg" width="289.000000pt" height="289.000000pt" viewBox="0 0 289.000000 289.000000" preserveAspectRatio="xMidYMid meet">

    <g transform="translate(0.000000,289.000000) scale(0.100000,-0.100000)" fill="#000000" stroke="none">
        <path d="M523 1653 c-12 -53 -18 -116 -17 -193 0 -135 22 -227 83 -348 74
-146 134 -218 406 -487 145 -143 282 -286 304 -318 54 -80 74 -143 69 -222 -5
-76 -4 -76 100 20 299 277 330 573 94 891 -86 116 -153 185 -398 410 -122 112
-246 230 -276 264 l-55 60 -146 0 -146 0 -18 -77z"/>
        <path d="M1546 1672 c427 -403 515 -497 565 -609 27 -59 39 -131 30 -180 -5
-24 -7 -43 -6 -43 6 0 124 189 149 238 42 83 84 219 96 313 12 93 4 190 -25
287 l-16 52 -427 0 -427 0 61 -58z"/>
    </g>
</svg>
