<?xml version="1.0" standalone="no"?>
<!DOCTYPE svg PUBLIC "-//W3C//DTD SVG 20010904//EN"
 "http://www.w3.org/TR/2001/REC-SVG-20010904/DTD/svg10.dtd">
<svg version="1.0" xmlns="http://www.w3.org/2000/svg"
 width="289.000000pt" height="289.000000pt" viewBox="0 0 289.000000 289.000000"
 preserveAspectRatio="xMidYMid meet">
<metadata>
Created by potrace 1.14, written by Peter Selinger 2001-2017
</metadata>
<g transform="translate(0.000000,289.000000) scale(0.100000,-0.100000)"
fill="#000000" stroke="none">
<path d="M1484 2843 c-283 -212 -385 -421 -318 -652 52 -181 192 -358 528
-666 267 -245 368 -358 418 -472 25 -57 33 -137 19 -188 -6 -21 -9 -41 -7 -43
8 -7 127 183 166 263 76 158 100 264 96 415 -4 127 -36 233 -105 349 -71 117
-123 178 -291 338 -286 274 -357 348 -399 412 -58 91 -77 168 -58 239 4 19 7
36 4 38 -2 2 -26 -12 -53 -33z"/>
<path d="M687 2046 c-74 -122 -147 -287 -163 -371 -2 -11 -8 -43 -14 -71 -23
-112 -11 -271 29 -386 74 -209 173 -333 543 -682 70 -65 148 -146 175 -180 92
-114 129 -223 105 -309 -6 -20 -7 -37 -3 -37 4 0 34 24 67 53 239 211 328 405
287 624 -37 197 -185 396 -518 698 -184 167 -322 304 -372 370 -93 122 -128
240 -98 326 8 22 12 39 10 39 -2 0 -24 -33 -48 -74z"/>
</g>
</svg>
